<?xml version="1.0" encoding="UTF-8" standalone="no"?>
<!-- Generator: Adobe Illustrator 19.0.0, SVG Export Plug-In . SVG Version: 6.00 Build 0)  -->

<svg
   version="1.1"
   id="Capa_1"
   x="0px"
   y="0px"
   viewBox="0 0 512 512"
   style="enable-background:new 0 0 512 512;"
   xml:space="preserve"
   sodipodi:docname="home.svg"
   inkscape:version="1.3.2 (091e20e, 2023-11-25, custom)"
   xmlns:inkscape="http://www.inkscape.org/namespaces/inkscape"
   xmlns:sodipodi="http://sodipodi.sourceforge.net/DTD/sodipodi-0.dtd"
   xmlns="http://www.w3.org/2000/svg"
   xmlns:svg="http://www.w3.org/2000/svg"><defs
   id="defs2" /><sodipodi:namedview
   id="namedview2"
   pagecolor="#ffffff"
   bordercolor="#000000"
   borderopacity="0.25"
   inkscape:showpageshadow="2"
   inkscape:pageopacity="0.0"
   inkscape:pagecheckerboard="0"
   inkscape:deskcolor="#d1d1d1"
   inkscape:zoom="1.5175781"
   inkscape:cx="256"
   inkscape:cy="256"
   inkscape:window-width="1920"
   inkscape:window-height="991"
   inkscape:window-x="-9"
   inkscape:window-y="-9"
   inkscape:window-maximized="1"
   inkscape:current-layer="Capa_1" />
<g
   id="g2"
   style="fill:#800080">
	<g
   id="g1"
   style="fill:#800080">
		<path
   fill="#fff"
   d="M475.425,200.225L262.092,4.669c-6.951-6.359-17.641-6.204-24.397,0.35L36.213,200.574    c-3.449,3.348-5.399,7.953-5.399,12.758v280.889c0,9.819,7.958,17.778,17.778,17.778h148.148c9.819,0,17.778-7.959,17.778-17.778    v-130.37h82.963v130.37c0,9.819,7.958,17.778,17.778,17.778h148.148c9.819,0,17.778-7.953,17.778-17.778V213.333    C481.185,208.349,479.099,203.597,475.425,200.225z M445.629,476.444H333.037v-130.37c0-9.819-7.959-17.778-17.778-17.778H196.741    c-9.819,0-17.778,7.959-17.778,17.778v130.37H66.37V220.853L250.424,42.216l195.206,178.939V476.444z"
   id="path1"
   style="fill:#800080" />
	</g>
</g>

</svg>
